<svg width="33" height="32" viewBox="0 0 33 32" fill="none" xmlns="http://www.w3.org/2000/svg">
<path d="M21.4569 4.03625C20.2406 2.72313 18.5419 2 16.6669 2C14.7819 2 13.0775 2.71875 11.8669 4.02375C10.6431 5.34312 10.0469 7.13625 10.1869 9.0725C10.4644 12.8925 13.3712 16 16.6669 16C19.9625 16 22.8644 12.8931 23.1462 9.07375C23.2881 7.155 22.6881 5.36563 21.4569 4.03625ZM27.6669 30H5.66686C5.3789 30.0037 5.09373 29.9433 4.83209 29.8229C4.57045 29.7026 4.33893 29.5254 4.15436 29.3044C3.74811 28.8188 3.58436 28.1556 3.70561 27.485C4.23311 24.5588 5.87936 22.1006 8.46686 20.375C10.7656 18.8431 13.6775 18 16.6669 18C19.6562 18 22.5681 18.8438 24.8669 20.375C27.4544 22.1 29.1006 24.5581 29.6281 27.4844C29.7494 28.155 29.5856 28.8181 29.1794 29.3037C28.9949 29.5249 28.7634 29.7022 28.5017 29.8226C28.2401 29.9431 27.9549 30.0037 27.6669 30Z" fill="#191919" fill-opacity="0.3"/>
</svg>
