<svg width="33" height="32" viewBox="0 0 33 32" fill="none" xmlns="http://www.w3.org/2000/svg">
<path d="M8.66683 24.764C11.6082 24.764 14.0002 22.372 14.0002 19.4306V5.90396L26.0002 10.2666V20.1733C25.1933 19.6926 24.2727 19.4362 23.3335 19.4306C20.3922 19.4306 18.0002 21.8226 18.0002 24.764C18.0002 27.7053 20.3922 30.0973 23.3335 30.0973C26.2748 30.0973 28.6668 27.7053 28.6668 24.764V9.3333C28.667 9.05974 28.5829 8.79276 28.4259 8.56873C28.2689 8.3447 28.0467 8.1745 27.7895 8.0813L13.1228 2.74796C12.9215 2.67436 12.7054 2.65044 12.4928 2.67824C12.2802 2.70603 12.0775 2.78472 11.9019 2.90762C11.7262 3.03052 11.5828 3.194 11.4839 3.38417C11.3849 3.57435 11.3333 3.78559 11.3335 3.99996V14.84C10.5267 14.3592 9.60601 14.1028 8.66683 14.0973C5.7255 14.0973 3.3335 16.4893 3.3335 19.4306C3.3335 22.372 5.7255 24.764 8.66683 24.764Z" fill="#191919" fill-opacity="0.3"/>
</svg>
