<svg width="33" height="32" viewBox="0 0 33 32" fill="none" xmlns="http://www.w3.org/2000/svg">
<g clip-path="url(#clip0_2607_128)">
<path d="M16.6668 2.66663C24.0308 2.66663 30.0002 8.63596 30.0002 16C30.0002 23.364 24.0308 29.3333 16.6668 29.3333C9.30283 29.3333 3.3335 23.364 3.3335 16C3.3335 8.63596 9.30283 2.66663 16.6668 2.66663ZM16.6668 7.99996C16.3132 7.99996 15.9741 8.14044 15.724 8.39048C15.474 8.64053 15.3335 8.97967 15.3335 9.33329V16C15.3336 16.3536 15.4741 16.6926 15.7242 16.9426L19.7242 20.9426C19.9756 21.1855 20.3124 21.3199 20.662 21.3169C21.0116 21.3138 21.346 21.1736 21.5933 20.9264C21.8405 20.6792 21.9807 20.3448 21.9837 19.9952C21.9868 19.6456 21.8524 19.3088 21.6095 19.0573L18.0002 15.448V9.33329C18.0002 8.97967 17.8597 8.64053 17.6096 8.39048C17.3596 8.14044 17.0205 7.99996 16.6668 7.99996Z" fill="#191919" fill-opacity="0.3"/>
</g>
<defs>
<clipPath id="clip0_2607_128">
<rect width="32" height="32" fill="white" transform="translate(0.666748)"/>
</clipPath>
</defs>
</svg>
